<?xml version="1.0" standalone="no"?>
<!DOCTYPE svg PUBLIC "-//W3C//DTD SVG 20010904//EN"
 "http://www.w3.org/TR/2001/REC-SVG-20010904/DTD/svg10.dtd">
<svg version="1.0" xmlns="http://www.w3.org/2000/svg"
 width="260.000000pt" height="260.000000pt" viewBox="0 0 260.000000 260.000000"
 preserveAspectRatio="xMidYMid meet">
<metadata>
Created by potrace 1.11, written by Peter Selinger 2001-2013
</metadata>
<g transform="translate(0.000000,260.000000) scale(0.100000,-0.100000)"
fill="#000000" stroke="none">
<path d="M0 2276 c0 -7 7 -19 15 -26 9 -8 15 -8 15 -2 0 6 9 14 20 17 32 10
23 25 -15 25 -23 0 -35 -5 -35 -14z"/>
<path d="M268 2248 c9 -9 15 -9 24 0 9 9 7 12 -12 12 -19 0 -21 -3 -12 -12z"/>
<path d="M209 2236 c9 -11 9 -15 -1 -20 -10 -5 -10 -7 0 -12 13 -6 7 -24 -9
-24 -6 0 -7 5 -4 10 3 6 2 10 -4 10 -6 0 -8 6 -6 13 3 7 -5 13 -21 14 l-27 1
31 -31 c23 -23 34 -28 44 -20 12 11 19 13 36 13 4 0 13 9 20 20 10 17 10 20
-3 20 -8 0 -14 -5 -12 -11 1 -6 -4 -14 -10 -16 -16 -6 -17 19 -1 35 9 9 6 12
-16 12 -23 0 -26 -3 -17 -14z"/>
<path d="M68 2228 c9 -9 15 -9 24 0 9 9 7 12 -12 12 -19 0 -21 -3 -12 -12z"/>
<path d="M3 2207 c1 -12 7 -25 12 -29 6 -5 5 -8 -2 -8 -7 0 -13 -5 -13 -12 0
-6 3 -8 6 -5 4 3 16 -5 27 -19 l19 -25 23 21 c20 18 27 20 45 10 19 -10 26 -9
43 9 19 19 20 21 4 21 -10 0 -15 -4 -12 -10 3 -5 -1 -10 -9 -10 -19 0 -21 11
-4 28 9 9 6 12 -16 12 -15 0 -25 -4 -21 -10 4 -6 -5 -10 -19 -10 -27 0 -36 15
-14 22 7 3 6 7 -5 11 -11 4 -17 1 -17 -8 0 -8 -5 -15 -11 -15 -7 0 -9 9 -5 23
4 18 1 23 -14 24 -14 1 -19 -4 -17 -20z"/>
<path d="M295 2190 c-11 -5 -15 -9 -10 -9 6 -1 3 -6 -5 -11 -8 -5 -24 -7 -35
-3 -17 5 -18 4 -6 -10 12 -15 16 -15 52 6 51 29 54 49 4 27z"/>
<path d="M184 2124 c4 -10 -4 -14 -26 -14 -29 0 -31 -1 -17 -16 14 -14 19 -13
52 8 43 27 46 36 11 36 -17 0 -24 -5 -20 -14z"/>
<path d="M9 2127 c-4 -13 -6 -37 -2 -37 2 0 11 6 18 14 12 12 12 15 0 20 -8 3
-15 4 -16 3z"/>
<path d="M88 2118 c9 -9 15 -9 24 0 9 9 7 12 -12 12 -19 0 -21 -3 -12 -12z"/>
<path d="M1079 2105 c-9 -8 -273 -67 -309 -69 -19 0 -41 -5 -47 -9 -7 -5 -18
-5 -23 -2 -6 4 -16 2 -23 -3 -7 -5 -42 -15 -79 -22 -38 -7 -68 -17 -68 -22 0
-6 -11 -7 -26 -4 -21 6 -23 5 -13 -7 11 -12 20 -11 57 5 60 27 62 18 3 -14
-32 -17 -52 -23 -59 -16 -6 6 -17 2 -31 -14 -13 -13 -20 -16 -16 -7 4 10 1 16
-8 16 -16 0 -19 -29 -4 -38 5 -4 -4 -14 -21 -23 -43 -22 -49 -20 -22 9 23 24
18 31 -14 19 -9 -3 -14 -10 -11 -14 3 -4 -1 -7 -8 -6 -14 1 -127 -46 -127 -54
0 -3 11 -7 25 -8 16 -1 25 3 25 13 0 8 8 15 17 15 9 0 25 8 35 17 18 16 18 16
12 -1 -4 -10 -16 -22 -28 -26 l-21 -9 22 0 c12 -1 24 3 27 8 3 5 21 12 39 15
18 3 43 15 54 26 12 10 23 17 25 14 7 -7 91 25 99 38 6 10 43 19 91 21 16 1
16 2 0 21 -16 18 -16 19 1 13 10 -4 32 0 49 9 16 8 32 13 36 10 3 -3 1 -6 -4
-6 -5 0 -20 -10 -34 -21 -20 -17 -21 -19 -5 -14 19 7 50 11 118 14 20 1 26 5
21 14 -6 9 -5 9 8 -1 13 -10 33 -4 119 36 57 27 116 52 132 56 30 7 37 26 9
26 -10 0 -21 -2 -23 -5z m-164 -65 c-3 -5 -11 -10 -16 -10 -6 0 -7 5 -4 10 3
6 11 10 16 10 6 0 7 -4 4 -10z m-61 -16 c4 -9 4 -19 1 -22 -3 -3 -5 0 -5 8 0
9 -9 11 -32 6 l-33 -6 25 15 c32 18 37 18 44 -1z m-84 -18 c0 -2 -8 -10 -17
-17 -16 -13 -17 -12 -4 4 13 16 21 21 21 13z"/>
<path d="M1040 2000 c-35 -13 -43 -18 -24 -15 32 4 108 33 89 34 -5 0 -35 -9
-65 -19z"/>
<path d="M440 1973 c-28 -8 -120 -58 -120 -65 0 -10 14 -10 24 -1 4 4 13 8 19
9 7 0 20 2 31 2 11 1 16 7 13 16 -7 17 27 28 41 14 6 -6 12 -6 17 2 9 15 -6
29 -25 23z"/>
<path d="M2170 1925 c14 -8 30 -14 35 -14 6 0 -1 6 -15 14 -14 8 -29 14 -35
14 -5 0 1 -6 15 -14z"/>
<path d="M1720 1860 c0 -5 5 -10 11 -10 5 0 7 5 4 10 -3 6 -8 10 -11 10 -2 0
-4 -4 -4 -10z"/>
<path d="M1025 1845 c-22 -8 -31 -14 -20 -14 11 0 40 6 65 13 30 10 37 15 20
14 -14 0 -43 -6 -65 -13z"/>
<path d="M1690 1850 c0 -5 5 -10 11 -10 5 0 7 5 4 10 -3 6 -8 10 -11 10 -2 0
-4 -4 -4 -10z"/>
<path d="M189 1814 c-14 -7 -53 -15 -87 -18 -67 -5 -103 -18 -83 -30 22 -14
201 32 201 51 0 7 -1 13 -2 12 -2 -1 -15 -7 -29 -15z"/>
<path d="M948 1823 c6 -2 18 -2 25 0 6 3 1 5 -13 5 -14 0 -19 -2 -12 -5z"/>
<path d="M888 1813 c7 -3 16 -2 19 1 4 3 -2 6 -13 5 -11 0 -14 -3 -6 -6z"/>
<path d="M1111 1804 c-2 -21 -115 -47 -186 -42 -45 3 -61 1 -48 -5 18 -8 19
-13 10 -53 -6 -25 -15 -43 -21 -41 -11 4 -29 35 -42 72 -4 14 -8 16 -11 6 -3
-7 14 -52 38 -99 29 -57 39 -87 31 -90 -7 -2 -12 -11 -12 -20 0 -14 -2 -14 -9
-3 -7 10 -12 11 -27 1 -15 -9 -15 -10 -2 -6 9 2 19 -2 22 -10 3 -8 10 -14 16
-14 6 0 9 4 5 10 -3 5 4 19 15 30 l20 20 -25 38 c-30 44 -31 50 -7 48 9 0 16
4 15 11 -2 7 4 10 12 7 8 -4 15 -2 15 4 0 5 -6 12 -14 15 -11 4 -13 14 -7 34
7 26 12 28 59 31 41 2 52 0 52 -12 0 -18 57 -86 73 -86 6 0 18 7 27 15 14 13
26 14 61 6 24 -5 45 -8 48 -5 2 2 -1 4 -7 4 -7 0 -12 8 -12 18 0 13 -2 14 -9
4 -5 -8 -17 -12 -27 -10 -16 3 -19 12 -19 56 0 33 -4 52 -12 52 -6 0 -14 6
-16 13 -3 7 -6 7 -6 1z m-1 -48 c0 -25 -19 -86 -27 -86 -17 0 -42 24 -53 50
-15 35 -16 33 30 47 50 15 50 15 50 -11z m17 -48 c-3 -8 -6 -5 -6 6 -1 11 2
17 5 13 3 -3 4 -12 1 -19z"/>
<path d="M720 1790 c-12 -9 -9 -10 12 -6 15 4 45 -1 68 -10 22 -9 44 -14 47
-11 17 18 -105 43 -127 27z"/>
<path d="M660 1765 c0 -8 -5 -15 -12 -15 -6 0 -8 -3 -5 -7 4 -3 16 3 27 15 17
18 18 22 5 22 -8 0 -15 -7 -15 -15z"/>
<path d="M1160 1756 c0 -15 7 -26 20 -29 24 -6 27 15 4 37 -21 21 -24 20 -24
-8z"/>
<path d="M1228 1772 c-10 -2 -18 -10 -18 -18 0 -17 17 -19 23 -1 3 6 4 2 4
-10 -1 -13 -5 -23 -9 -23 -16 0 -7 -33 13 -51 20 -17 39 -22 145 -34 l51 -6
-8 -52 c-10 -71 -17 -217 -10 -217 13 0 36 20 24 20 -9 0 -10 7 -3 24 4 13 10
58 11 100 2 42 7 76 11 76 4 0 3 12 -2 26 l-10 26 112 -4 c78 -2 102 -1 80 6
-29 8 -32 12 -30 47 1 41 7 46 26 27 6 -6 15 -9 19 -5 3 4 -2 14 -13 22 -18
14 -18 14 6 6 14 -5 24 -14 22 -20 -1 -6 2 -11 8 -11 22 0 8 28 -19 40 -32 13
-125 4 -115 -11 3 -5 9 -7 13 -4 12 7 30 -40 24 -64 -8 -32 -19 -25 -17 12 1
21 0 24 -3 7 -7 -38 -22 -48 -39 -26 -12 17 -14 18 -14 3 0 -9 -4 -17 -10 -17
-5 0 -10 7 -10 17 0 15 -2 15 -19 -1 -26 -24 -41 -13 -41 32 l-1 37 -13 -30
c-7 -16 -9 -31 -4 -33 17 -7 7 -20 -12 -15 -24 6 -24 5 -6 48 8 19 11 35 7 35
-5 0 -11 6 -14 14 -5 12 12 15 33 5 3 -1 14 -2 25 -3 10 -1 25 -11 31 -24 l12
-23 6 25 c3 13 14 27 24 29 9 3 -1 5 -23 6 -22 1 -60 6 -85 11 -26 5 -51 4
-60 -1 -13 -7 -12 -8 3 -9 9 0 17 -5 17 -11 0 -6 -7 -9 -15 -5 -12 4 -15 -3
-15 -34 0 -31 4 -40 18 -41 11 -1 8 -4 -8 -8 -36 -11 -40 -5 -35 42 6 47 -11
81 -37 76 -14 -4 -15 -7 -2 -34 l14 -30 -5 28 c-3 15 -1 27 5 27 10 0 12 -6
12 -40 0 -53 -3 -70 -12 -70 -5 0 -10 8 -11 18 0 10 -3 12 -6 5 -11 -28 -22
-10 -25 40 -3 44 -6 52 -20 49z m157 -42 c3 -5 -1 -10 -10 -10 -9 0 -13 5 -10
10 3 6 8 10 10 10 2 0 7 -4 10 -10z"/>
<path d="M1875 1770 c-3 -5 -12 -7 -20 -3 -11 4 -13 1 -9 -11 6 -16 8 -16 25
0 11 9 19 19 19 21 0 6 -9 3 -15 -7z"/>
<path d="M2333 1763 c4 -3 0 -14 -9 -24 -18 -20 -7 -30 24 -22 15 3 22 13 21
27 -1 15 -3 17 -6 4 -2 -9 -12 -19 -21 -23 -14 -5 -15 -4 -4 6 15 16 16 39 0
39 -6 0 -8 -3 -5 -7z"/>
<path d="M578 1727 c-34 -10 -36 -12 -43 -64 -3 -29 -11 -53 -15 -53 -19 0
-42 50 -38 80 4 28 2 30 -26 29 -17 -1 -24 -3 -15 -6 8 -2 20 -24 27 -48 14
-53 53 -85 82 -68 14 10 23 6 49 -21 25 -26 40 -55 29 -56 -2 0 -20 -6 -40
-13 -36 -13 -37 -14 -22 -33 12 -15 15 -16 10 -2 -5 18 26 37 32 19 2 -6 8
-11 13 -11 4 0 6 7 3 15 -4 9 3 19 20 26 26 12 38 33 13 23 -8 -3 -32 15 -55
40 -22 24 -43 41 -47 38 -4 -4 -5 13 -3 37 3 39 7 46 32 54 26 9 32 7 48 -17
22 -29 38 -34 38 -11 0 8 -6 15 -14 15 -8 0 -18 9 -21 20 -3 11 -9 19 -13 19
-4 -1 -23 -6 -44 -12z"/>
<path d="M1514 1726 c-3 -8 -4 -23 -2 -33 3 -11 6 -6 9 15 6 34 2 42 -7 18z"/>
<path d="M1453 1695 c0 -22 2 -30 4 -17 2 12 2 30 0 40 -3 9 -5 -1 -4 -23z"/>
<path d="M1160 1710 c0 -5 5 -10 11 -10 5 0 7 5 4 10 -3 6 -8 10 -11 10 -2 0
-4 -4 -4 -10z"/>
<path d="M1805 1709 c-4 -6 -13 -8 -21 -5 -7 3 -16 0 -20 -6 -5 -7 -2 -8 6 -3
10 6 12 4 6 -11 -6 -15 -3 -14 18 5 15 14 26 26 26 28 0 7 -9 2 -15 -8z"/>
<path d="M320 1704 c0 -3 8 -18 18 -32 30 -43 34 -52 23 -52 -5 0 -21 19 -34
41 l-25 41 -7 -31 c-7 -34 -16 -38 -35 -16 -11 13 -10 18 6 30 10 8 14 15 7
15 -6 0 -18 -6 -26 -14 -11 -11 -17 -12 -27 -3 -10 9 -12 9 -7 -4 4 -11 -7
-22 -39 -37 -42 -21 -43 -22 -33 -51 10 -29 40 -48 58 -37 4 3 11 28 15 56 4
27 9 50 12 50 2 0 16 -7 29 -16 27 -17 45 -12 45 14 0 11 10 4 31 -21 17 -20
35 -37 40 -37 16 0 10 34 -11 60 -11 14 -20 31 -20 38 0 12 -20 18 -20 6z
m-120 -100 c-11 -47 -19 -53 -36 -30 -20 28 -18 41 9 54 34 16 36 15 27 -24z"/>
<path d="M2347 1703 c-4 -3 -7 -11 -7 -17 0 -6 5 -5 12 2 6 6 9 14 7 17 -3 3
-9 2 -12 -2z"/>
<path d="M1645 1677 c-4 -10 -5 -21 -1 -24 10 -10 18 4 13 24 -4 17 -4 17 -12
0z"/>
<path d="M1945 1676 c-10 -36 -13 -58 -5 -50 4 5 10 20 13 34 l4 25 2 -26 c1
-26 31 -64 31 -40 0 6 -4 11 -10 11 -5 0 -10 11 -10 25 0 28 8 30 44 13 26
-11 26 -11 5 -25 -14 -11 -17 -18 -10 -27 6 -7 8 -16 4 -19 -3 -4 8 -7 26 -7
23 0 34 6 42 23 8 19 9 17 4 -11 -3 -20 -1 -31 5 -27 17 10 12 72 -6 79 -9 3
-20 4 -25 0 -5 -3 -9 -1 -9 5 0 5 6 12 13 14 11 5 -9 8 -84 12 -17 1 -32 -3
-34 -9z m100 -56 c-3 -5 -12 -7 -20 -3 -21 7 -19 13 6 13 11 0 18 -4 14 -10z"/>
<path d="M143 1673 c9 -2 25 -2 35 0 9 3 1 5 -18 5 -19 0 -27 -2 -17 -5z"/>
<path d="M1673 1663 c0 -17 7 -16 31 2 19 15 19 15 -5 13 -14 -1 -26 -8 -26
-15z"/>
<path d="M43 1657 c-24 -5 -43 -13 -43 -18 0 -4 24 -1 53 8 82 24 75 31 -10
10z"/>
<path d="M2350 1661 c0 -6 4 -13 10 -16 6 -3 7 1 4 9 -7 18 -14 21 -14 7z"/>
<path d="M1145 1640 c-3 -5 -1 -10 4 -10 6 0 11 5 11 10 0 6 -2 10 -4 10 -3 0
-8 -4 -11 -10z"/>
<path d="M295 1607 c-4 -14 -5 -38 -2 -53 3 -21 4 -18 6 14 0 24 5 42 9 40 4
-1 38 -25 75 -53 l67 -50 1 -55 c0 -30 2 -67 4 -82 3 -20 -1 -28 -11 -28 -9 0
-13 5 -9 13 4 6 -7 -3 -22 -20 -29 -32 -29 -32 -46 -13 -9 11 -21 20 -26 20
-4 0 6 -16 25 -35 31 -33 59 -50 35 -21 -17 20 13 43 34 26 13 -11 14 -10 9 4
-7 19 16 22 34 4 9 -9 12 -9 12 0 0 7 5 12 10 12 6 0 10 -7 10 -15 0 -8 -4
-15 -10 -15 -5 0 -10 -4 -10 -10 0 -19 19 -10 26 13 3 12 14 31 23 41 15 18
15 18 -4 9 -11 -5 -29 -9 -40 -9 -22 1 -32 42 -31 123 1 47 0 49 -54 85 -30
20 -67 46 -82 58 l-27 21 -6 -24z"/>
<path d="M1688 1623 c7 -3 16 -2 19 1 4 3 -2 6 -13 5 -11 0 -14 -3 -6 -6z"/>
<path d="M0 1610 c0 -4 14 -10 31 -14 20 -4 33 -13 36 -26 6 -23 24 -22 31 1
3 8 1 11 -3 7 -5 -5 -14 1 -21 11 -13 18 -74 35 -74 21z"/>
<path d="M1291 1510 c0 -60 -2 -114 -6 -120 -3 -5 -1 -10 4 -10 6 0 11 -12 11
-27 0 -17 3 -23 8 -16 4 6 7 29 6 50 -1 21 3 41 9 45 9 6 9 8 0 8 -7 0 -12 11
-11 25 1 14 5 25 8 25 3 0 3 29 2 65 -3 48 -7 65 -18 65 -11 0 -14 -22 -13
-110z"/>
<path d="M1740 1601 c-6 -11 -10 -89 -10 -180 0 -122 -3 -161 -12 -161 -10 0
-10 -2 0 -8 7 -5 11 -19 10 -32 -6 -46 72 -21 84 28 4 12 2 22 -3 22 -5 0 -9
-9 -9 -20 0 -11 -6 -20 -14 -20 -9 0 -15 19 -20 58 -3 31 -8 74 -11 95 -3 22
-1 37 5 37 5 0 10 -5 10 -12 0 -6 3 -9 6 -5 3 3 2 12 -2 19 -11 16 -11 36 -2
70 4 18 0 39 -11 62 -12 22 -15 39 -9 50 5 9 7 16 4 16 -3 0 -10 -9 -16 -19z
m17 -108 c-3 -10 -5 -4 -5 12 0 17 2 24 5 18 2 -7 2 -21 0 -30z m-7 -258 c0
-14 -4 -25 -9 -25 -4 0 -6 11 -3 25 2 14 6 25 8 25 2 0 4 -11 4 -25z"/>
<path d="M2343 1605 c-3 -9 -3 -18 -1 -21 3 -3 8 4 11 16 6 23 -1 27 -10 5z"/>
<path d="M88 1603 c6 -2 18 -2 25 0 6 3 1 5 -13 5 -14 0 -19 -2 -12 -5z"/>
<path d="M1562 1533 c-1 -43 -5 -99 -8 -124 -4 -30 -2 -49 6 -54 6 -4 13 -5
15 -3 2 2 8 61 12 131 7 111 6 127 -7 127 -13 0 -16 -15 -18 -77z"/>
<path d="M1682 1498 c0 -116 6 -105 10 20 2 45 0 82 -3 82 -4 0 -7 -46 -7
-102z"/>
<path d="M10 1582 c0 -13 27 -35 39 -30 5 1 -2 11 -15 21 -13 10 -24 14 -24 9z"/>
<path d="M1141 1574 c0 -11 3 -14 6 -6 3 7 2 16 -1 19 -3 4 -6 -2 -5 -13z"/>
<path d="M1920 1569 c0 -12 7 -19 21 -19 19 0 20 -4 13 -86 -6 -72 -5 -86 7
-82 10 3 15 27 17 82 l3 77 27 -3 c22 -2 28 -9 32 -34 l5 -31 35 34 c19 18 27
31 18 27 -10 -3 -18 -10 -18 -15 0 -5 -4 -9 -10 -9 -5 0 -10 14 -10 30 0 28
-2 30 -38 30 -20 0 -52 4 -70 9 -28 9 -32 7 -32 -10z"/>
<path d="M1092 1551 c-7 -4 -24 -6 -38 -3 -23 4 -24 3 -13 -21 l12 -26 28 22
c34 25 43 49 11 28z m-22 -21 c0 -5 -4 -10 -10 -10 -5 0 -10 5 -10 10 0 6 5
10 10 10 6 0 10 -4 10 -10z"/>
<path d="M2180 1541 c55 -20 78 -21 43 -3 -10 6 -36 13 -58 16 -36 6 -35 4 15
-13z"/>
<path d="M136 1534 c-3 -9 -6 -24 -6 -35 0 -11 -14 -28 -32 -40 -25 -16 -28
-20 -11 -16 13 3 39 -4 60 -14 20 -10 44 -19 53 -18 13 0 13 1 0 6 -8 3 -29
11 -47 19 l-32 12 19 51 c10 28 15 51 10 51 -4 0 -11 -7 -14 -16z"/>
<path d="M720 1541 c0 -5 6 -21 14 -35 11 -21 15 -23 20 -11 3 9 -3 24 -14 35
-11 11 -20 16 -20 11z"/>
<path d="M966 1525 c19 -30 23 -30 40 -7 19 25 17 32 -8 32 -18 0 -20 -2 -8
-10 11 -7 12 -12 3 -21 -8 -8 -13 -6 -18 10 -3 12 -11 21 -16 21 -5 0 -2 -11
7 -25z"/>
<path d="M790 1520 c0 -5 5 -10 10 -10 6 0 10 5 10 10 0 6 -4 10 -10 10 -5 0
-10 -4 -10 -10z"/>
<path d="M2 1465 c-1 -43 9 -58 23 -34 9 13 -3 79 -14 79 -5 0 -9 -20 -9 -45z"/>
<path d="M492 1481 c11 -18 13 -18 24 -3 7 9 10 19 8 22 -3 2 -9 -2 -14 -10
-7 -10 -10 -11 -10 -2 0 6 -5 12 -10 12 -6 0 -5 -8 2 -19z"/>
<path d="M648 1460 c2 -22 0 -46 -6 -53 -15 -20 -23 -65 -12 -72 6 -4 9 -12 8
-20 -2 -7 8 -23 22 -35 22 -19 25 -20 28 -5 5 21 -6 48 -16 42 -4 -3 -7 15 -8
39 0 24 4 44 8 44 4 0 8 9 8 21 0 11 -4 17 -10 14 -6 -4 -10 8 -10 29 0 20 -3
36 -8 36 -4 0 -6 -18 -4 -40z"/>
<path d="M797 1485 c3 -8 9 -12 14 -9 12 7 11 11 -5 17 -10 4 -13 1 -9 -8z"/>
<path d="M263 1468 c-21 -26 -22 -63 -3 -85 10 -13 23 -23 28 -23 6 0 13 -6
15 -12 4 -10 6 -10 6 0 1 6 7 12 15 12 7 0 19 14 26 30 16 38 -2 90 -31 90
-22 0 -26 -25 -5 -33 15 -6 16 -38 2 -69 -7 -15 -9 -15 -25 0 -19 19 -26 58
-11 67 12 8 13 35 1 35 -5 0 -13 -6 -18 -12z"/>
<path d="M2322 1464 c10 -10 20 -15 24 -12 3 4 -5 12 -18 18 -22 12 -22 12 -6
-6z"/>
<path d="M2466 1464 c-11 -8 -16 -14 -10 -14 13 0 39 18 34 24 -3 2 -14 -2
-24 -10z"/>
<path d="M2508 1473 c7 -3 16 -2 19 1 4 3 -2 6 -13 5 -11 0 -14 -3 -6 -6z"/>
<path d="M1519 1420 c-5 -55 -4 -68 7 -58 3 3 4 30 2 59 l-3 54 -6 -55z"/>
<path d="M2385 1459 c-20 -10 -66 -92 -65 -117 0 -10 3 -10 14 0 8 7 12 16 10
20 -6 9 36 80 56 95 18 15 12 15 -15 2z"/>
<path d="M1869 1423 c-13 -16 -12 -17 4 -4 16 13 21 21 13 21 -2 0 -10 -8 -17
-17z"/>
<path d="M302 1410 c0 -14 2 -19 5 -12 2 6 2 18 0 25 -3 6 -5 1 -5 -13z"/>
<path d="M720 1419 c0 -6 9 -22 20 -36 16 -20 17 -28 7 -44 -6 -10 -15 -19
-19 -19 -12 0 -9 -38 3 -46 6 -3 23 5 37 20 15 14 21 26 14 26 -7 0 -10 5 -7
10 4 6 11 8 16 5 5 -4 9 -2 9 4 0 5 -4 13 -10 16 -5 3 -10 11 -10 16 0 6 6 7
13 3 6 -5 -1 6 -18 24 -30 32 -55 42 -55 21z"/>
<path d="M900 1408 c0 -9 5 -20 10 -23 13 -8 13 5 0 25 -8 13 -10 13 -10 -2z"/>
<path d="M1150 1390 c8 -5 20 -10 25 -10 6 0 3 5 -5 10 -8 5 -19 10 -25 10 -5
0 -3 -5 5 -10z"/>
<path d="M1859 1377 c-8 -12 -16 -41 -20 -65 -5 -43 -5 -43 12 -20 10 13 17
30 17 38 -2 34 3 49 20 52 15 3 15 4 1 10 -10 4 -21 -2 -30 -15z"/>
<path d="M222 1375 c4 -4 3 -14 -3 -22 -7 -8 -8 -13 -1 -13 15 0 23 28 9 36
-7 4 -9 4 -5 -1z"/>
<path d="M30 1335 c0 -8 4 -15 8 -15 5 0 9 7 9 15 0 8 -4 15 -9 15 -4 0 -8 -7
-8 -15z"/>
<path d="M139 1337 c7 -7 14 -8 21 -1 6 6 2 10 -12 11 -16 2 -18 -1 -9 -10z"/>
<path d="M255 1339 c4 -6 -3 -13 -16 -17 l-24 -6 25 -7 c23 -6 22 -7 -8 -8
-20 -1 -31 3 -27 9 3 6 2 10 -4 10 -5 0 -9 -9 -8 -20 1 -15 6 -18 27 -14 51
12 65 17 72 27 3 6 9 -7 13 -29 10 -62 13 -63 14 -5 1 52 0 53 -24 47 -18 -5
-25 -2 -25 9 0 8 -5 15 -11 15 -5 0 -7 -5 -4 -11z"/>
<path d="M569 1333 c6 -13 16 -23 21 -23 6 0 10 -7 10 -17 0 -22 13 -8 17 18
2 12 -1 18 -8 14 -5 -4 -20 1 -31 12 -21 18 -21 18 -9 -4z"/>
<path d="M942 1343 c-7 -2 -17 -14 -23 -26 -11 -21 -11 -21 14 1 l25 23 16
-22 c9 -13 16 -19 16 -14 -1 11 -25 45 -31 44 -2 0 -10 -3 -17 -6z"/>
<path d="M1413 1312 c-1 -37 -1 -37 8 -7 4 16 5 33 1 37 -4 4 -8 -10 -9 -30z"/>
<path d="M1806 1341 c-4 -7 -5 -15 -2 -18 9 -9 19 4 14 18 -4 11 -6 11 -12 0z"/>
<path d="M2378 1343 c7 -3 16 -2 19 1 4 3 -2 6 -13 5 -11 0 -14 -3 -6 -6z"/>
<path d="M2418 1333 c7 -3 16 -2 19 1 4 3 -2 6 -13 5 -11 0 -14 -3 -6 -6z"/>
<path d="M66 1318 c4 -11 1 -19 -7 -20 -8 0 -18 -2 -24 -3 -5 -2 -16 -3 -22
-4 -7 0 -13 -6 -13 -12 0 -6 9 -8 23 -3 12 4 36 8 53 9 17 1 37 6 44 10 8 5
11 3 8 -6 -3 -8 -18 -17 -34 -20 l-29 -7 27 -1 c15 0 30 4 33 9 3 6 17 10 31
10 23 0 24 1 10 16 -11 11 -25 14 -47 9 -23 -5 -34 -3 -45 12 -12 16 -13 16
-8 1z"/>
<path d="M840 1319 c0 -5 5 -7 10 -4 6 3 10 8 10 11 0 2 -4 4 -10 4 -5 0 -10
-5 -10 -11z"/>
<path d="M1031 1298 c13 -21 34 -43 47 -49 12 -7 22 -18 22 -26 0 -7 5 -13 10
-13 17 0 12 8 -46 67 -48 49 -53 52 -33 21z"/>
<path d="M1069 1313 c-13 -16 -12 -17 3 -5 14 11 18 10 27 -5 6 -10 11 -13 11
-7 0 6 -6 17 -14 23 -10 9 -17 7 -27 -6z"/>
<path d="M2490 1236 l0 -95 -32 10 c-18 5 -46 8 -63 8 -22 -1 -16 -4 20 -10
90 -17 105 -18 110 -8 4 5 -1 9 -10 9 -13 0 -15 13 -13 85 2 47 6 85 10 85 3
0 16 -16 27 -36 12 -20 24 -34 28 -31 11 11 -38 77 -58 77 -17 0 -19 -8 -19
-94z"/>
<path d="M1289 1288 c-1 -18 -3 -45 -4 -59 -3 -23 0 -26 30 -26 19 0 32 4 29
9 -3 4 -14 8 -24 8 -21 0 -33 13 -23 24 10 10 12 76 2 76 -5 0 -10 -15 -10
-32z"/>
<path d="M805 1299 c4 -5 -1 -20 -12 -32 l-18 -22 24 20 c23 20 23 20 20 0 -2
-10 -15 -22 -28 -25 -14 -3 -26 -11 -29 -18 -2 -8 5 -8 30 2 18 8 34 21 36 30
4 21 19 20 31 -1 6 -10 11 -13 11 -8 0 6 -14 23 -31 38 -33 28 -45 34 -34 16z"/>
<path d="M2323 1254 c0 -61 -9 -75 -46 -77 -41 -3 -19 -12 28 -12 24 0 41 3
38 8 -3 5 -5 38 -4 73 1 35 -3 64 -7 64 -5 0 -9 -25 -9 -56z"/>
<path d="M2388 1303 c-12 -3 -17 -15 -16 -44 0 -34 3 -39 24 -40 13 -1 29 -2
36 -3 6 -1 13 5 16 13 3 9 0 11 -9 5 -12 -7 -12 -5 0 9 11 15 11 17 -2 17 -8
0 -17 -6 -20 -12 -4 -10 -7 -10 -18 0 -11 10 -10 12 5 12 10 0 14 5 11 11 -4
6 -14 8 -24 4 -13 -5 -14 -4 -3 7 10 10 17 10 35 -1 22 -14 22 -14 3 8 -11 11
-20 20 -20 20 -1 -1 -9 -3 -18 -6z"/>
<path d="M450 1282 c0 -7 4 -12 9 -12 16 0 22 -32 9 -49 -11 -14 -11 -14 3 -4
13 11 21 7 48 -27 20 -25 33 -53 33 -71 1 -20 4 -26 9 -17 9 16 0 68 -12 68
-17 0 -9 18 11 23 11 3 20 10 20 16 0 7 -9 6 -23 -4 -25 -16 -39 -11 -30 11 3
9 -1 14 -12 14 -12 0 -15 5 -11 17 4 10 4 14 0 10 -4 -4 -18 3 -31 15 -13 12
-23 16 -23 10z"/>
<path d="M263 1268 c1 -7 -9 -14 -22 -16 -19 -3 -21 -6 -10 -13 10 -6 10 -9 2
-9 -7 0 -18 9 -25 20 -15 23 -30 27 -22 6 3 -8 -1 -16 -10 -18 -11 -2 -13 -7
-6 -18 8 -12 11 -13 19 -1 6 9 10 10 12 2 3 -8 20 -9 52 -5 49 7 61 26 35 52
-16 16 -29 15 -25 0z m22 -28 c3 -5 -1 -10 -10 -10 -9 0 -13 5 -10 10 3 6 8
10 10 10 2 0 7 -4 10 -10z"/>
<path d="M2587 1273 c-4 -3 -7 -11 -7 -17 0 -6 5 -5 12 2 6 6 9 14 7 17 -3 3
-9 2 -12 -2z"/>
<path d="M581 1248 c7 -13 15 -29 19 -37 3 -8 12 -17 20 -19 10 -4 9 1 -2 17
-9 12 -14 31 -11 42 4 14 0 19 -16 19 -19 0 -20 -3 -10 -22z"/>
<path d="M628 1263 c7 -3 16 -2 19 1 4 3 -2 6 -13 5 -11 0 -14 -3 -6 -6z"/>
<path d="M10 1250 c0 -5 7 -7 15 -4 8 4 15 8 15 10 0 2 -7 4 -15 4 -8 0 -15
-4 -15 -10z"/>
<path d="M889 1234 c-10 -12 -9 -13 5 -8 23 9 77 -54 70 -81 -4 -18 -4 -18 6
-2 9 14 6 25 -17 57 -33 46 -47 54 -64 34z"/>
<path d="M974 1228 c-19 -23 -19 -23 2 -5 11 9 24 14 27 10 4 -3 7 -1 7 5 0
19 -15 14 -36 -10z"/>
<path d="M1404 1225 c-2 -32 12 -32 18 0 3 15 1 25 -6 25 -6 0 -12 -11 -12
-25z"/>
<path d="M384 1211 c37 -38 70 -44 93 -17 16 18 16 19 1 7 -22 -17 -75 -6 -91
20 -6 10 -16 19 -21 19 -5 0 3 -13 18 -29z"/>
<path d="M1208 1233 c6 -2 18 -2 25 0 6 3 1 5 -13 5 -14 0 -19 -2 -12 -5z"/>
<path d="M314 1192 c2 -19 8 -37 12 -40 4 -4 4 1 1 10 -3 10 -2 20 3 23 6 4
10 0 11 -7 0 -7 4 -4 9 7 13 31 11 39 -6 24 -13 -10 -17 -10 -25 2 -7 10 -8 4
-5 -19z"/>
<path d="M650 1209 c-12 -9 -11 -10 7 -6 12 3 24 1 27 -4 2 -5 3 -4 2 3 -3 17
-18 20 -36 7z"/>
<path d="M790 1216 c0 -2 16 -14 35 -26 40 -24 42 -35 18 -63 -17 -19 -17 -20
5 -8 12 6 22 19 22 29 0 29 47 -38 59 -85 6 -23 11 -68 11 -101 l0 -59 -41
-12 c-23 -7 -39 -14 -36 -17 2 -2 16 0 31 5 33 13 34 -2 1 -17 -37 -17 -97
-15 -124 4 -14 10 -26 13 -32 7 -6 -6 6 -14 33 -23 49 -14 138 -22 118 -10 -9
6 -7 10 9 15 40 12 56 51 52 129 -1 39 -9 86 -17 105 -17 41 -17 41 1 41 8 0
15 6 15 14 0 17 -39 65 -40 49 0 -7 4 -13 9 -13 5 0 11 -9 14 -20 4 -14 0 -20
-13 -20 -26 0 -42 23 -27 40 10 12 9 12 -6 1 -23 -18 -34 -7 -16 16 13 16 12
17 -3 4 -15 -11 -22 -11 -43 3 -24 16 -35 20 -35 12z"/>
<path d="M1585 1200 l-70 -6 72 -2 c39 -1 75 3 78 8 3 6 3 9 -2 8 -4 -1 -39
-4 -78 -8z"/>
<path d="M1688 1203 c7 -3 16 -2 19 1 4 3 -2 6 -13 5 -11 0 -14 -3 -6 -6z"/>
<path d="M1912 1195 c3 -4 35 -8 70 -11 35 -2 92 -6 128 -10 36 -3 61 -3 57 2
-4 5 -22 9 -40 11 -18 1 -75 5 -127 9 -52 4 -92 3 -88 -1z"/>
<path d="M732 1178 c-7 -7 -12 -17 -12 -22 0 -6 5 -3 11 7 6 9 14 15 20 12 5
-4 9 -1 9 4 0 14 -13 14 -28 -1z"/>
<path d="M1453 1183 c9 -2 25 -2 35 0 9 3 1 5 -18 5 -19 0 -27 -2 -17 -5z"/>
<path d="M1788 1183 c7 -3 16 -2 19 1 4 3 -2 6 -13 5 -11 0 -14 -3 -6 -6z"/>
<path d="M2200 1170 c-9 -6 -10 -10 -3 -10 6 0 15 5 18 10 8 12 4 12 -15 0z"/>
<path d="M1005 1159 c-22 -8 -21 -9 13 -13 13 -2 25 1 27 5 8 11 -18 17 -40 8z"/>
<path d="M1104 1148 c-19 -23 -19 -23 1 -6 11 9 36 18 55 21 l35 4 -36 1 c-26
2 -41 -4 -55 -20z"/>
<path d="M2565 1160 c-18 -8 -17 -9 8 -9 15 -1 27 4 27 9 0 12 -8 12 -35 0z"/>
<path d="M403 1153 c16 -3 25 -9 21 -15 -4 -7 -2 -8 4 -4 22 14 12 26 -20 25
-31 -2 -31 -2 -5 -6z"/>
<path d="M323 1105 c0 -22 2 -30 4 -17 2 12 2 30 0 40 -3 9 -5 -1 -4 -23z"/>
<path d="M600 1125 c-11 -13 -10 -14 3 -9 14 5 15 1 7 -28 -6 -18 -10 -34 -10
-35 0 -1 -10 -3 -22 -5 -12 -2 -23 -10 -25 -18 -4 -12 -2 -12 5 -2 5 7 13 12
18 11 24 -4 44 2 42 14 -2 6 5 11 15 11 17 -2 17 0 3 15 -9 10 -13 26 -9 39 6
25 -9 29 -27 7z"/>
<path d="M646 1118 c7 -10 34 -10 34 0 0 4 -9 8 -19 8 -11 0 -17 -4 -15 -8z"/>
<path d="M736 1098 c-10 -16 -15 -32 -12 -35 3 -3 10 6 15 20 5 14 18 27 28
29 16 3 16 4 2 10 -11 4 -21 -3 -33 -24z"/>
<path d="M362 1080 c0 -19 2 -27 5 -17 2 9 2 25 0 35 -3 9 -5 1 -5 -18z"/>
<path d="M222 1080 c0 -14 2 -19 5 -12 2 6 2 18 0 25 -3 6 -5 1 -5 -13z"/>
<path d="M667 1086 c-4 -9 -2 -16 4 -16 6 0 7 -6 3 -12 -5 -10 -4 -10 6 -1 8
7 9 16 3 28 -9 16 -11 16 -16 1z"/>
<path d="M3 1033 c0 -33 4 -43 21 -47 17 -5 18 -8 7 -15 -19 -12 43 -52 127
-81 35 -13 62 -29 62 -36 0 -18 -4 -18 -79 8 -35 13 -77 35 -92 49 -18 17 -29
22 -29 13 0 -17 71 -59 145 -84 32 -11 59 -20 60 -20 9 0 9 61 1 65 -6 2 -1 2
12 -1 22 -5 31 9 12 21 -5 3 -10 15 -10 26 0 11 -10 23 -24 28 -13 5 -26 17
-30 27 -4 9 -9 14 -13 10 -3 -3 -17 1 -30 9 -13 9 -23 11 -23 6 0 -6 7 -14 16
-19 15 -8 15 -11 0 -35 -11 -16 -13 -27 -7 -32 6 -3 11 2 11 13 0 31 26 47 45
29 10 -11 12 -18 4 -22 -6 -4 -8 -13 -5 -21 4 -10 -2 -13 -22 -11 -40 5 -54
16 -47 38 4 11 1 33 -6 48 -10 23 -20 29 -41 29 -15 -1 -28 -5 -28 -10 0 -22
-26 1 -31 28 -6 24 -7 22 -6 -13z m54 -35 c-3 -8 -6 -5 -6 6 -1 11 2 17 5 13
3 -3 4 -12 1 -19z m42 -9 c16 -37 9 -46 -23 -31 -22 10 -23 14 -13 36 15 33
19 32 36 -5z m131 -69 c0 -18 -26 -35 -34 -22 -2 4 0 17 5 30 10 26 29 21 29
-8z"/>
<path d="M429 1057 c8 -9 11 -21 7 -24 -4 -4 -11 -2 -15 5 -5 8 -8 1 -8 -18 0
-37 8 -38 25 -3 10 23 10 29 -5 43 -16 14 -16 14 -4 -3z"/>
<path d="M530 1060 c0 -5 4 -10 9 -10 6 0 13 5 16 10 3 6 -1 10 -9 10 -9 0
-16 -4 -16 -10z"/>
<path d="M1820 1050 c0 -5 5 -10 11 -10 5 0 7 5 4 10 -3 6 -8 10 -11 10 -2 0
-4 -4 -4 -10z"/>
<path d="M650 1042 c0 -5 8 -13 18 -17 15 -7 14 -9 -8 -15 -16 -5 -19 -8 -7
-9 13 -1 17 -10 17 -36 0 -36 -15 -46 -38 -23 -9 9 -12 9 -12 0 0 -18 30 -27
48 -15 9 5 17 22 18 39 1 16 5 39 8 52 3 13 1 20 -5 16 -5 -3 -16 0 -24 6 -9
7 -15 8 -15 2z"/>
<path d="M1313 1032 c-7 -4 -19 -27 -27 -50 -9 -24 -31 -67 -51 -97 -20 -29
-38 -71 -41 -92 l-4 -38 13 41 c8 23 28 61 44 85 17 24 35 61 42 81 17 53 35
65 74 49 18 -7 42 -15 53 -18 31 -7 51 -47 34 -68 -7 -8 -18 -15 -24 -15 -6
-1 -24 -12 -41 -26 -16 -15 -23 -24 -14 -21 14 5 16 -2 11 -41 -2 -27 -13 -58
-25 -72 -21 -25 -21 -25 7 1 19 19 29 38 32 68 5 55 17 76 54 91 16 7 30 17
30 22 0 20 -42 68 -58 68 -10 0 -26 6 -37 14 -29 19 -58 27 -72 18z"/>
<path d="M460 1026 c0 -2 8 -10 18 -17 15 -13 16 -12 3 4 -13 16 -21 21 -21
13z"/>
<path d="M332 1000 c0 -14 2 -19 5 -12 2 6 2 18 0 25 -3 6 -5 1 -5 -13z"/>
<path d="M580 975 c0 -16 36 -20 58 -6 10 6 8 10 -10 14 -36 10 -48 8 -48 -8z"/>
<path d="M2104 968 c-3 -4 4 -8 15 -8 11 0 22 4 26 9 3 6 -4 9 -16 8 -11 -1
-23 -5 -25 -9z"/>
<path d="M2170 969 c0 -4 14 -9 30 -11 18 -3 30 0 30 7 0 6 -13 11 -30 10 -16
0 -30 -3 -30 -6z"/>
<path d="M2247 960 c-6 -24 16 -59 27 -41 9 15 -1 61 -13 61 -5 0 -11 -9 -14
-20z"/>
<path d="M500 961 c0 -6 5 -13 10 -16 6 -3 10 -1 10 4 0 6 7 11 15 11 9 0 12
-6 9 -15 -4 -8 -1 -15 6 -15 6 0 8 5 5 10 -3 6 0 10 7 10 9 0 9 3 -2 10 -19
12 -60 13 -60 1z"/>
<path d="M1995 959 c-11 -4 -15 -8 -9 -8 7 -1 15 -11 19 -23 6 -20 8 -20 12
-5 8 31 0 45 -22 36z"/>
<path d="M331 944 c0 -11 3 -14 6 -6 3 7 2 16 -1 19 -3 4 -6 -2 -5 -13z"/>
<path d="M1938 920 c-2 -22 0 -40 4 -40 5 0 8 6 8 13 0 9 2 9 8 0 8 -13 52
-14 52 -1 0 13 -18 18 -23 6 -3 -8 -6 -6 -6 5 -1 9 -7 17 -15 17 -9 0 -12 7
-9 20 3 11 1 20 -5 20 -5 0 -12 -18 -14 -40z"/>
<path d="M1898 925 c5 -28 17 -26 25 5 4 14 0 20 -13 20 -13 0 -16 -6 -12 -25z"/>
<path d="M730 918 c0 -9 5 -20 11 -23 17 -11 20 0 4 21 -13 17 -14 17 -15 2z"/>
<path d="M295 900 c-4 -6 -11 -8 -16 -5 -5 4 -5 -3 -1 -16 5 -12 22 -27 40
-34 29 -13 31 -12 35 8 3 20 4 21 12 3 18 -41 -48 -37 -87 6 -16 18 -17 18
-27 0 -15 -27 -4 -56 29 -75 15 -9 32 -17 37 -17 4 0 -7 9 -24 20 -19 11 -33
28 -33 39 0 19 2 19 48 -4 26 -13 71 -33 100 -46 41 -18 52 -27 49 -41 -6 -21
2 -22 38 -6 16 7 25 19 25 35 0 12 -4 23 -9 23 -5 0 -8 7 -7 16 1 18 -53 55
-67 47 -5 -3 -15 5 -24 16 -10 16 -18 19 -27 12 -8 -7 -22 -4 -44 9 -38 23
-39 23 -47 10z m35 -31 c0 -5 -7 -9 -15 -9 -9 0 -15 9 -15 21 0 18 2 19 15 9
8 -7 15 -16 15 -21z m61 -32 c-8 -8 -11 -7 -11 4 0 20 13 34 18 19 3 -7 -1
-17 -7 -23z m29 -7 c0 -5 -5 -10 -11 -10 -5 0 -7 5 -4 10 3 6 8 10 11 10 2 0
4 -4 4 -10z m77 -13 c3 -5 1 -7 -5 -3 -6 3 -13 2 -17 -4 -3 -5 -11 -10 -17
-10 -6 0 -8 3 -5 7 4 3 2 12 -3 18 -8 9 -4 11 15 7 14 -2 28 -9 32 -15z m-82
-25 c-3 -3 -11 0 -18 7 -9 10 -8 11 6 5 10 -3 15 -9 12 -12z m42 -8 c-3 -3
-12 -4 -19 -1 -8 3 -5 6 6 6 11 1 17 -2 13 -5z m53 -23 c0 -10 -30 -24 -37
-17 -3 3 -2 9 2 15 8 13 35 15 35 2z"/>
<path d="M1005 901 c-34 -4 -50 -11 -50 -20 0 -8 7 -17 15 -19 13 -5 13 -3 0
13 -8 10 -10 16 -4 12 16 -9 104 3 104 14 0 5 -3 8 -7 7 -5 0 -30 -4 -58 -7z"/>
<path d="M1453 893 c-7 -2 -13 -12 -13 -20 0 -12 3 -13 13 -4 8 6 17 8 20 4 4
-3 7 1 7 10 0 17 -5 19 -27 10z"/>
<path d="M770 886 c0 -2 9 -6 20 -9 11 -3 18 -1 14 4 -5 9 -34 13 -34 5z"/>
<path d="M583 846 c0 -14 3 -26 8 -26 11 0 11 21 0 39 -6 9 -8 5 -8 -13z"/>
<path d="M1870 860 c0 -5 5 -10 11 -10 5 0 7 5 4 10 -3 6 -8 10 -11 10 -2 0
-4 -4 -4 -10z"/>
<path d="M659 858 c-7 -26 -5 -38 6 -38 21 0 25 13 9 28 -8 7 -14 11 -15 10z"/>
<path d="M1628 823 l-3 -38 -15 33 c-22 48 -37 41 -45 -23 -3 -19 0 -35 5 -35
6 0 10 7 10 15 0 12 4 13 18 4 14 -9 25 -8 51 5 26 14 32 22 29 44 -2 19 -10
28 -25 30 -19 3 -22 -2 -25 -35z m35 2 c-3 -9 -8 -14 -10 -11 -3 3 -2 9 2 15
9 16 15 13 8 -4z m-57 -42 c-3 -4 -6 -1 -6 5 0 7 -8 12 -17 12 -15 0 -16 2 -3
10 10 6 17 4 23 -6 5 -9 6 -18 3 -21z"/>
<path d="M1453 828 c10 -17 9 -22 -2 -26 -10 -3 -8 -9 10 -23 20 -15 21 -17 5
-16 -10 1 -21 -4 -23 -10 -7 -19 34 -16 45 3 10 18 -15 80 -35 88 -10 4 -10 1
0 -16z"/>
<path d="M910 836 c0 -2 7 -6 15 -10 8 -3 15 -1 15 4 0 6 -7 10 -15 10 -8 0
-15 -2 -15 -4z"/>
<path d="M1100 830 c0 -5 5 -10 10 -10 6 0 10 5 10 10 0 6 -4 10 -10 10 -5 0
-10 -4 -10 -10z"/>
<path d="M1488 818 c2 -10 8 -18 13 -18 5 0 9 -11 9 -25 0 -14 4 -25 9 -25 14
0 18 9 24 55 l6 40 -14 -40 c-9 -28 -14 -33 -14 -17 -1 12 -7 22 -13 23 -7 0
-4 4 7 8 18 7 17 8 -6 13 -22 4 -25 1 -21 -14z"/>
<path d="M740 820 c0 -5 9 -10 20 -10 11 0 20 5 20 10 0 6 -9 10 -20 10 -11 0
-20 -4 -20 -10z"/>
<path d="M978 823 c12 -2 32 -2 45 0 12 2 2 4 -23 4 -25 0 -35 -2 -22 -4z"/>
<path d="M1815 810 c-3 -5 -2 -10 4 -10 5 0 13 5 16 10 3 6 2 10 -4 10 -5 0
-13 -4 -16 -10z"/>
<path d="M582 775 c-6 -14 -16 -25 -22 -25 -5 0 -10 -7 -10 -17 0 -9 3 -13 6
-10 4 3 15 2 25 -4 12 -6 19 -6 19 0 0 6 14 6 36 -1 49 -13 67 3 36 34 -12 12
-22 17 -22 11 0 -7 5 -15 10 -18 16 -10 12 -25 -5 -18 -9 3 -13 8 -11 11 3 3
1 11 -5 19 -6 7 -8 13 -4 13 4 0 2 7 -5 15 -18 22 -35 18 -48 -10z m34 -3 c-3
-3 -1 -11 5 -19 9 -10 7 -13 -11 -13 -16 0 -20 4 -16 16 3 9 6 20 6 25 0 6 5
7 11 4 6 -4 8 -10 5 -13z"/>
<path d="M1026 774 c-11 -7 -17 -16 -15 -19 3 -3 14 2 25 9 10 8 17 17 14 19
-3 3 -14 -1 -24 -9z"/>
<path d="M345 760 c3 -5 11 -10 16 -10 6 0 7 5 4 10 -3 6 -11 10 -16 10 -6 0
-7 -4 -4 -10z"/>
<path d="M1630 760 c-8 -5 -10 -10 -5 -10 6 0 17 5 25 10 8 5 11 10 5 10 -5 0
-17 -5 -25 -10z"/>
<path d="M1155 732 c3 -7 5 -27 5 -43 0 -28 2 -29 23 -18 12 7 24 11 27 10 3
-1 6 7 8 19 4 21 13 26 26 13 4 -5 25 -8 47 -8 21 0 39 3 39 8 0 6 -33 12 -54
8 -4 -1 -25 4 -45 11 -50 17 -83 17 -76 0z m48 -21 c3 -14 1 -18 -9 -14 -8 3
-14 11 -14 19 0 21 17 17 23 -5z"/>
<path d="M2050 715 c0 -16 13 -31 35 -39 17 -6 18 -5 5 6 -8 7 -20 20 -27 28
-7 8 -12 11 -13 5z"/>
<path d="M2359 645 c14 -36 29 -65 32 -65 3 0 -5 29 -19 65 -14 36 -29 65 -33
65 -4 0 5 -29 20 -65z"/>
<path d="M2436 687 c3 -10 9 -15 12 -12 3 3 0 11 -7 18 -10 9 -11 8 -5 -6z"/>
<path d="M1085 680 c-19 -8 -19 -9 3 -9 12 -1 22 4 22 9 0 6 -1 10 -2 9 -2 0
-12 -4 -23 -9z"/>
<path d="M416 665 c-11 -8 -15 -15 -9 -15 6 0 16 7 23 15 16 19 11 19 -14 0z"/>
<path d="M1410 672 c0 -14 40 -42 60 -41 13 0 13 1 0 6 -8 3 -25 15 -37 26
-13 11 -23 15 -23 9z"/>
<path d="M953 655 c-3 -9 -3 -18 -1 -21 3 -3 8 4 11 16 6 23 -1 27 -10 5z"/>
<path d="M890 629 c0 -5 5 -7 10 -4 6 3 10 8 10 11 0 2 -4 4 -10 4 -5 0 -10
-5 -10 -11z"/>
<path d="M996 623 c-6 -14 -5 -15 5 -6 7 7 10 15 7 18 -3 3 -9 -2 -12 -12z"/>
<path d="M1231 620 c0 -14 4 -32 9 -40 9 -13 10 -13 9 0 -1 8 -5 26 -9 40 l-8
25 -1 -25z"/>
<path d="M2103 625 c-3 -9 -3 -18 -1 -21 3 -3 8 4 11 16 6 23 -1 27 -10 5z"/>
<path d="M856 614 c-8 -20 8 -51 18 -35 4 6 2 11 -4 11 -7 0 -9 8 -5 20 8 24
0 27 -9 4z"/>
<path d="M960 620 c-9 -6 -10 -10 -3 -10 6 0 15 5 18 10 8 12 4 12 -15 0z"/>
<path d="M910 611 c0 -8 -7 -11 -17 -6 -15 5 -16 4 -5 -6 9 -10 15 -10 24 -1
6 6 9 15 5 19 -4 3 -7 1 -7 -6z"/>
<path d="M2440 606 c0 -8 4 -17 9 -20 5 -4 7 3 4 14 -6 23 -13 26 -13 6z"/>
<path d="M1075 590 c-16 -11 -25 -20 -20 -20 10 0 64 39 55 40 -3 0 -18 -9
-35 -20z"/>
<path d="M810 588 c0 -4 4 -8 9 -8 6 0 12 4 15 8 3 5 -1 9 -9 9 -8 0 -15 -4
-15 -9z"/>
<path d="M791 577 c-1 -12 -5 -16 -13 -11 -8 5 -7 0 2 -11 14 -16 15 -17 18
-1 2 9 1 22 -1 29 -3 7 -6 4 -6 -6z"/>
<path d="M1680 580 c0 -5 7 -7 15 -4 8 4 15 8 15 10 0 2 -7 4 -15 4 -8 0 -15
-4 -15 -10z"/>
<path d="M2030 584 c0 -5 9 -17 20 -27 20 -17 29 -54 10 -42 -5 3 -10 -2 -10
-12 0 -16 1 -16 19 2 10 11 21 34 25 50 6 26 5 28 -7 13 -13 -16 -15 -16 -35
5 -12 12 -22 17 -22 11z"/>
<path d="M1825 559 c-4 -6 -5 -12 -2 -15 2 -3 7 2 10 11 7 17 1 20 -8 4z"/>
<path d="M2461 550 c14 -31 19 -36 19 -24 0 6 -7 19 -16 30 -14 18 -14 18 -3
-6z"/>
<path d="M736 545 c-5 -15 -9 -17 -15 -6 -10 16 -31 6 -31 -14 0 -8 5 -17 11
-21 8 -4 9 1 4 17 -7 20 -6 22 6 12 17 -14 43 -1 37 18 -3 9 -7 7 -12 -6z"/>
<path d="M1446 543 c-6 -14 -5 -15 5 -6 7 7 10 15 7 18 -3 3 -9 -2 -12 -12z"/>
<path d="M665 530 c-3 -5 -1 -10 4 -10 6 0 11 5 11 10 0 6 -2 10 -4 10 -3 0
-8 -4 -11 -10z"/>
<path d="M2095 514 c-9 -15 -12 -23 -6 -20 11 7 35 46 28 46 -3 0 -12 -12 -22
-26z"/>
<path d="M590 485 c0 -27 6 -30 29 -16 17 11 7 41 -14 41 -9 0 -15 -9 -15 -25z
m17 -7 c-3 -8 -6 -5 -6 6 -1 11 2 17 5 13 3 -3 4 -12 1 -19z"/>
<path d="M388 483 c-32 -8 -19 -18 23 -19 36 0 39 2 23 13 -10 7 -20 12 -23
12 -3 -1 -14 -3 -23 -6z"/>
<path d="M555 472 c-5 -15 -10 -19 -15 -13 -11 19 -38 2 -33 -20 3 -10 9 -16
14 -13 5 3 7 10 4 15 -3 5 0 7 7 4 20 -7 40 10 35 31 -4 17 -6 16 -12 -4z"/>
<path d="M1955 470 c-3 -6 1 -7 9 -4 18 7 21 14 7 14 -6 0 -13 -4 -16 -10z"/>
<path d="M2056 464 c-18 -17 -20 -24 -8 -24 4 0 13 9 20 20 15 24 9 26 -12 4z"/>
<path d="M2206 463 c-6 -14 -5 -15 5 -6 7 7 10 15 7 18 -3 3 -9 -2 -12 -12z"/>
<path d="M1238 463 c0 -5 -2 -19 -3 -33 -1 -14 -5 -35 -9 -47 -5 -14 -3 -23 3
-23 6 0 12 12 12 28 3 53 4 57 12 70 5 7 4 12 -2 12 -6 0 -12 -3 -13 -7z"/>
<path d="M1393 443 c1 -18 5 -33 10 -33 9 0 8 19 -3 45 -7 16 -8 14 -7 -12z"/>
<path d="M2421 454 c0 -11 3 -14 6 -6 3 7 2 16 -1 19 -3 4 -6 -2 -5 -13z"/>
<path d="M460 440 c0 -5 10 -14 22 -21 18 -10 20 -9 15 6 -4 9 -7 19 -7 21 0
2 -7 4 -15 4 -8 0 -15 -4 -15 -10z"/>
<path d="M880 446 c0 -2 7 -9 15 -16 9 -7 15 -8 15 -2 0 5 -7 12 -15 16 -8 3
-15 4 -15 2z"/>
<path d="M2441 394 c0 -11 3 -14 6 -6 3 7 2 16 -1 19 -3 4 -6 -2 -5 -13z"/>
<path d="M784 381 c20 -22 26 -25 26 -13 0 4 -10 13 -22 21 -23 14 -23 14 -4
-8z"/>
<path d="M736 367 c3 -10 9 -15 12 -12 3 3 0 11 -7 18 -10 9 -11 8 -5 -6z"/>
<path d="M830 350 c0 -5 5 -10 11 -10 5 0 7 5 4 10 -3 6 -8 10 -11 10 -2 0 -4
-4 -4 -10z"/>
<path d="M2125 310 c-16 -7 -17 -9 -3 -9 9 -1 20 4 23 9 7 11 7 11 -20 0z"/>
<path d="M1378 303 c6 -2 18 -2 25 0 6 3 1 5 -13 5 -14 0 -19 -2 -12 -5z"/>
</g>
</svg>
